<svg id="Layer_1" data-name="Layer 1" xmlns="http://www.w3.org/2000/svg" viewBox="0 0 227.27 50.08"><defs><style>.cls-1,.cls-3{fill:#6563ff;}.cls-2{fill:#a2a1ff;}.cls-3{font-size:24px;font-family:VictorMonoNerdFontC-Bold-Italic, VictorMono NF;font-style:italic;}</style></defs><path class="cls-1" d="M29.06,23.72H27.32V22a1.74,1.74,0,0,0-3.47,0v1.74H22.11a1.74,1.74,0,0,0,0,3.48h1.74v1.74a1.74,1.74,0,0,0,3.47,0V27.2h1.74a1.74,1.74,0,1,0,0-3.48Z"/><path class="cls-2" d="M38.85,11a1.74,1.74,0,0,0-1.46-.35A13.87,13.87,0,0,1,26.58,8.39a1.76,1.76,0,0,0-2,0A13.89,13.89,0,0,1,13.77,10.6a1.73,1.73,0,0,0-2,1.34,1.47,1.47,0,0,0,0,.36v13A15.66,15.66,0,0,0,18.23,38l6.34,4.54a1.74,1.74,0,0,0,2,0L32.94,38a15.69,15.69,0,0,0,6.55-12.72v-13A1.75,1.75,0,0,0,38.85,11ZM29.06,27.2H27.32v1.74a1.74,1.74,0,0,1-3.47,0V27.2H22.11a1.74,1.74,0,0,1,0-3.48h1.74V22a1.74,1.74,0,0,1,3.47,0v1.74h1.74a1.74,1.74,0,1,1,0,3.48Z"/><text class="cls-3" transform="translate(52.56 33.69)">Find-a-CoWIN</text></svg>