<svg width="657.364" height="79.731" viewBox="0 0 657.364 79.731" xmlns="http://www.w3.org/2000/svg"><g id="svgGroup" stroke-linecap="round" fill-rule="evenodd"><path d="M 503.727 78.455 L 517.818 47.637 L 519.091 78.455 L 527.545 78.455 L 553.273 5.728 L 544 5.728 L 526.636 55.455 L 525.909 27.637 L 517.727 27.637 L 505.182 55.455 L 509.091 5.728 L 500 5.728 L 494.818 78.455 L 503.727 78.455 Z M 636.909 59.092 L 623.545 5.728 L 613.909 5.728 L 598.455 78.455 L 607.545 78.455 L 618.909 24.91 L 632.364 78.455 L 641.909 78.455 L 657.364 5.728 L 648.273 5.728 L 636.909 59.092 Z M 109.909 25.91 L 113.545 32.637 A 97.006 97.006 0 0 1 114.476 31.777 C 116.473 29.957 117.305 29.419 118.137 29.369 A 2.234 2.234 0 0 1 118.273 29.364 C 119.083 29.364 119.605 29.726 119.902 30.384 A 2.668 2.668 0 0 1 120 30.637 A 1.313 1.313 0 0 1 120.044 30.866 C 120.099 31.404 119.818 31.863 119.818 32.183 L 109.818 78.455 L 118.818 78.455 L 124.364 51.546 A 23.516 23.516 0 0 1 125.109 48.819 C 128.034 40.123 136.019 31.427 141.718 29.681 A 6.594 6.594 0 0 1 143.636 29.364 A 7.609 7.609 0 0 1 146.395 29.823 C 149.636 31.083 150.59 34.946 148.407 41.541 A 36.314 36.314 0 0 1 148.091 42.455 A 162.801 162.801 0 0 0 144.968 52.052 C 142.206 61.568 141.134 68.877 141.273 72.819 A 7.343 7.343 0 0 0 142.444 76.635 C 143.747 78.581 146.089 79.728 149.273 79.728 A 15.913 15.913 0 0 0 151.597 79.552 C 154.978 79.05 158.359 77.508 159.887 75.297 A 5.344 5.344 0 0 0 160.182 74.819 L 156.455 67.455 A 11.238 11.238 0 0 1 155.34 69.152 C 154.235 70.531 152.953 71.364 151.818 71.364 A 2.559 2.559 0 0 1 151.014 71.246 C 150.489 71.072 150.125 70.705 150.021 70.147 A 1.749 1.749 0 0 1 150 70.001 C 149.659 66.457 151.26 59.952 153.729 51.938 A 438.876 438.876 0 0 1 156.455 43.455 C 161.129 29.432 157.181 21.186 145.049 21.004 A 27.543 27.543 0 0 0 144.636 21.001 A 13.647 13.647 0 0 0 140.221 21.789 C 137.46 22.736 134.554 24.531 131.713 27.146 A 37.785 37.785 0 0 0 129.091 29.819 A 6.785 6.785 0 0 0 129.289 28.488 C 129.418 25.722 127.758 23.308 125.194 22.012 A 9.693 9.693 0 0 0 120.818 21.001 A 15.913 15.913 0 0 0 118.493 21.177 C 115.113 21.679 111.732 23.22 110.204 25.432 A 5.344 5.344 0 0 0 109.909 25.91 Z M 428.818 62.183 L 420.636 58.546 C 416.16 67.338 413.09 70.579 406.915 71.233 A 25.977 25.977 0 0 1 404.182 71.364 C 393.091 71.364 391.182 64.728 395.909 42.728 A 141.063 141.063 0 0 1 398.242 33.212 C 400.191 26.427 402.366 21.638 405.062 18.414 A 15.61 15.61 0 0 1 418.091 12.819 A 20.083 20.083 0 0 1 421.542 13.064 C 426.046 13.861 427.329 16.83 428 25.183 L 436.909 22.91 A 40.725 40.725 0 0 0 435.966 16.211 C 433.94 7.756 428.852 4.455 418.364 4.455 A 30.37 30.37 0 0 0 406.469 6.526 C 397.055 10.488 391.77 20.468 387.528 39.286 A 200.05 200.05 0 0 0 387.091 41.274 A 160.483 160.483 0 0 0 385.897 47.475 C 381.919 70.76 386.806 79.728 403.909 79.728 A 34.911 34.911 0 0 0 411.206 79.058 C 418.281 77.544 422.872 73.277 427.675 64.378 A 86.652 86.652 0 0 0 428.818 62.183 Z M 600.364 5.728 L 561.818 5.728 L 560.091 14.092 L 574.727 14.092 L 562.909 70.092 L 548.182 70.092 L 546.364 78.455 L 584.909 78.455 L 586.727 70.092 L 572 70.092 L 583.818 14.092 L 598.636 14.092 L 600.364 5.728 Z M 58.545 5.728 L 15.455 5.728 L 0 78.455 L 9.091 78.455 L 15.455 48.364 L 37.364 48.364 L 39.091 40.001 L 17.364 40.001 L 22.727 14.092 L 56.818 14.092 L 58.545 5.728 Z M 205.545 67.637 L 218.818 5.728 L 209.818 5.728 L 205.455 24.819 A 13.153 13.153 0 0 0 201.229 22.121 C 199.857 21.57 198.324 21.199 196.652 21.061 A 17.879 17.879 0 0 0 195.182 21.001 A 27.142 27.142 0 0 0 172.307 34.397 C 169.542 38.664 167.477 43.789 166.294 49.534 A 52.491 52.491 0 0 0 166.182 50.092 A 128.953 128.953 0 0 0 165.298 55.089 C 162.559 72.757 166.14 79.728 179.909 79.728 A 51.639 51.639 0 0 0 184.518 79.54 C 191.153 78.943 194.271 76.968 196.455 74.183 C 196.615 77.712 198.828 79.331 202.719 79.663 A 19.394 19.394 0 0 0 204.364 79.728 A 15.913 15.913 0 0 0 206.688 79.552 C 210.069 79.05 213.45 77.508 214.978 75.297 A 5.344 5.344 0 0 0 215.273 74.819 L 211.545 67.455 A 11.238 11.238 0 0 1 210.431 69.152 C 209.326 70.531 208.044 71.364 206.909 71.364 A 3.167 3.167 0 0 1 206.296 71.311 C 204.881 71.031 205.141 69.657 205.545 67.637 Z M 321.727 74.819 L 318 67.455 A 11.238 11.238 0 0 1 316.886 69.152 C 315.781 70.531 314.499 71.364 313.364 71.364 A 5.184 5.184 0 0 1 312.705 71.328 C 311.135 71.125 311.332 70.057 311.818 67.546 C 318.385 37.914 319.393 32.888 319.393 31.054 A 4.22 4.22 0 0 0 319.364 30.546 A 9.213 9.213 0 0 0 318.276 25.907 C 316.438 22.683 312.234 21.112 305.385 21.007 A 48.766 48.766 0 0 0 304.636 21.001 C 289.677 21.001 273.091 41.796 273.091 62.197 A 37.569 37.569 0 0 0 273.091 62.364 A 22.987 22.987 0 0 0 273.083 62.969 C 273.083 72.999 279.747 79.728 289.818 79.728 C 294.182 79.728 298.818 77.637 302.455 73.91 A 1.052 1.052 0 0 1 302.433 73.888 C 302.3 73.747 302.54 73.886 302.713 73.573 A 0.726 0.726 0 0 0 302.727 73.546 C 302.884 76.44 305.26 78.93 308.931 79.569 A 10.995 10.995 0 0 0 310.818 79.728 A 15.913 15.913 0 0 0 313.143 79.552 C 316.524 79.05 319.905 77.508 321.432 75.297 A 5.344 5.344 0 0 0 321.727 74.819 Z M 101.364 68.274 L 94.636 63.546 A 103.729 103.729 0 0 1 93.388 65.271 C 90.036 69.79 88.202 71.183 84.905 71.347 A 14.525 14.525 0 0 1 84.182 71.364 A 17.328 17.328 0 0 1 80.62 71.048 C 75.733 70.01 74.191 66.227 76.505 56.844 A 67.692 67.692 0 0 1 77.091 54.637 L 82.636 34.819 A 13.248 13.248 0 0 0 83.004 33.145 C 83.812 27.755 80.52 24.174 74.436 22.703 A 24.534 24.534 0 0 0 72.182 22.274 L 70 30.637 A 9.625 9.625 0 0 1 71.499 30.98 C 73.743 31.707 74.435 33.192 73.816 35.672 A 10.206 10.206 0 0 1 73.727 36.001 L 68.455 54.637 A 73.072 73.072 0 0 0 67.42 58.735 C 64.23 73.241 68.579 78.94 80.524 79.651 A 46.357 46.357 0 0 0 83.273 79.728 A 20.497 20.497 0 0 0 88.484 79.128 C 93.147 77.912 96.827 74.707 101.364 68.274 Z M 456.727 79.728 C 469.727 79.728 480.182 67.183 483.909 50.728 C 488.818 29.274 484.909 21.001 468.364 21.001 C 455.364 21.001 444.364 33.546 441.182 50.001 C 436.909 71.455 440.182 79.728 456.727 79.728 Z M 202.455 41.455 L 197.273 64.91 A 9.26 9.26 0 0 1 194.454 67.81 C 191.96 69.534 188.312 70.796 184.03 71.214 A 32.137 32.137 0 0 1 180.909 71.364 A 11.344 11.344 0 0 1 177.338 70.87 C 172.857 69.379 171.829 64.367 173.819 53.895 A 104.12 104.12 0 0 1 174.455 50.819 C 176.187 42.885 179.773 36.599 184.412 32.933 A 15.622 15.622 0 0 1 194.182 29.364 C 199.874 29.364 203.204 33.92 202.547 40.674 A 19.026 19.026 0 0 1 202.455 41.455 Z M 453.66 70.969 A 18.13 18.13 0 0 0 457.727 71.364 A 9.893 9.893 0 0 0 458.782 71.308 C 463.515 70.8 468.248 66.935 471.609 61.188 A 35.139 35.139 0 0 0 475.727 50.001 A 123.314 123.314 0 0 0 476.251 47.056 C 478.102 35.809 476.95 31.013 471.282 29.734 A 17.957 17.957 0 0 0 467.364 29.364 A 9.707 9.707 0 0 0 466.952 29.373 C 462.023 29.583 457.238 33.528 453.732 39.527 A 40.622 40.622 0 0 0 449.364 50.728 C 446.386 64.015 447.512 69.541 453.66 70.969 Z M 285.227 69.626 A 9.024 9.024 0 0 0 290.727 71.364 A 7.059 7.059 0 0 0 291.458 71.326 C 294.824 70.976 298.374 68.256 301.335 64.281 A 35.911 35.911 0 0 0 306.273 54.91 C 308.636 42.91 310.727 33.728 310.818 31.819 C 310.636 29.91 309.091 29.364 303.727 29.364 A 7.343 7.343 0 0 0 303.399 29.372 C 295.469 29.727 284.774 42.788 282.086 55.848 A 29.699 29.699 0 0 0 281.455 61.455 C 281.564 65.071 282.961 67.927 285.227 69.626 Z M 263.909 46.274 L 265.636 37.91 L 228.364 37.91 L 226.636 46.274 L 263.909 46.274 Z M 373 46.274 L 374.727 37.91 L 337.455 37.91 L 335.727 46.274 L 373 46.274 Z M 83.455 12.91 C 88.182 12.91 90 11.546 90.909 7.092 A 20.585 20.585 0 0 0 91.124 5.984 C 91.855 1.509 90.238 0.016 84.987 0.001 A 28.123 28.123 0 0 0 84.909 0.001 A 16.171 16.171 0 0 0 82.501 0.156 C 79.492 0.613 78.148 2.147 77.401 5.639 A 19.88 19.88 0 0 0 77.364 5.819 C 76.273 11.183 77.727 12.91 83.455 12.91 Z" vector-effect="non-scaling-stroke"/></g></svg>